<?xml version="1.0" encoding="UTF-8"?>
<!DOCTYPE svg PUBLIC "-//W3C//DTD SVG 1.1//EN" "http://www.w3.org/Graphics/SVG/1.1/DTD/svg11.dtd">
<svg xmlns="http://www.w3.org/2000/svg" version="1.1" width="250px" height="135px" style="shape-rendering:geometricPrecision; text-rendering:geometricPrecision; image-rendering:optimizeQuality; fill-rule:evenodd; clip-rule:evenodd" xmlns:xlink="http://www.w3.org/1999/xlink">
<g><path style="opacity:0.908" fill="#fefffe" d="M -0.5,105.5 C -0.5,104.5 -0.5,103.5 -0.5,102.5C 2.98922,101.523 5.82255,99.5231 8,96.5C 8.49989,83.5043 8.66656,70.5043 8.5,57.5C 6.16667,57.5 3.83333,57.5 1.5,57.5C 1.5,53.1667 1.5,48.8333 1.5,44.5C 3.92397,44.8076 6.25731,44.4742 8.5,43.5C 6.79991,30.8507 12.4666,24.184 25.5,23.5C 31.2782,23.7224 35.9449,26.0557 39.5,30.5C 37.1833,33.3174 34.6833,35.9841 32,38.5C 29.8309,35.5825 27.3309,35.0825 24.5,37C 22.8131,38.913 22.3131,41.0797 23,43.5C 27.0659,44.4637 31.2325,44.797 35.5,44.5C 34.9412,48.8526 34.2745,53.186 33.5,57.5C 30.8333,57.5 28.1667,57.5 25.5,57.5C 25.6665,69.5046 25.4999,81.5046 25,93.5C 23.4474,104.393 17.4474,111.727 7,115.5C 4.25186,112.266 1.75186,108.932 -0.5,105.5 Z"/></g>
<g><path style="opacity:0.932" fill="#fefffe" d="M 52.5,23.5 C 53.8333,23.5 55.1667,23.5 56.5,23.5C 56.3334,42.5029 56.5001,61.5029 57,80.5C 58,81.1667 59,81.8333 60,82.5C 61.6995,81.5939 63.5328,81.2606 65.5,81.5C 65.3975,84.2186 65.7308,86.8853 66.5,89.5C 66.4096,91.4251 65.4096,92.5917 63.5,93C 56.4338,95.5475 49.7672,94.8809 43.5,91C 42.5399,89.5806 41.7065,88.0806 41,86.5C 40.5,66.1694 40.3334,45.8361 40.5,25.5C 44.7329,25.4613 48.7329,24.7947 52.5,23.5 Z"/></g>
<g><path style="opacity:0.979" fill="#ed2320" d="M 249.5,55.5 C 249.5,61.1667 249.5,66.8333 249.5,72.5C 246.068,79.7875 241.568,86.4541 236,92.5C 222.661,106.672 209.161,120.672 195.5,134.5C 194.833,134.5 194.167,134.5 193.5,134.5C 182.253,119.582 170.253,105.248 157.5,91.5C 160.167,89.5 162.5,87.1667 164.5,84.5C 166.883,86.3582 169.55,87.6916 172.5,88.5C 176.111,91.7678 180.445,93.6011 185.5,94C 190.204,94.6477 194.871,94.481 199.5,93.5C 214.955,93.0971 227.122,86.7638 236,74.5C 239.653,62.6351 236.153,53.4684 225.5,47C 210.967,39.3946 195.633,37.3946 179.5,41C 173.374,42.56 168.041,45.3934 163.5,49.5C 159.134,46.0446 154.134,44.3779 148.5,44.5C 156.144,38.662 164.811,34.8286 174.5,33C 198.077,28.0405 220.077,31.7072 240.5,44C 244.509,47.1607 247.509,50.994 249.5,55.5 Z"/></g>
<g><path style="opacity:1" fill="#7df487" d="M 199.5,93.5 C 210.011,87.4603 212.011,79.2936 205.5,69C 201.326,66.4123 196.993,64.079 192.5,62C 189.499,58.8405 189.999,56.6738 194,55.5C 197.541,56.5783 201.041,57.4116 204.5,58C 206.826,54.8536 208.159,51.3536 208.5,47.5C 201.027,44.9604 193.361,44.1271 185.5,45C 172.597,51.9933 171.263,60.66 181.5,71C 184.833,72.6667 188.167,74.3333 191.5,76C 194.75,80.1785 193.75,82.3451 188.5,82.5C 185.005,82.0884 181.671,81.0884 178.5,79.5C 176.698,82.8128 174.698,85.8128 172.5,88.5C 169.55,87.6916 166.883,86.3582 164.5,84.5C 168.352,76.2932 169.519,67.6265 168,58.5C 167.014,55.1943 165.514,52.1943 163.5,49.5C 168.041,45.3934 173.374,42.56 179.5,41C 195.633,37.3946 210.967,39.3946 225.5,47C 236.153,53.4684 239.653,62.6351 236,74.5C 227.122,86.7638 214.955,93.0971 199.5,93.5 Z"/></g>
<g><path style="opacity:0.928" fill="#fefffe" d="M 71.5,44.5 C 76.8333,44.5 82.1667,44.5 87.5,44.5C 87.3335,56.1714 87.5001,67.8381 88,79.5C 90.1276,83.3764 92.4609,83.3764 95,79.5C 95.6667,78.1667 96.3333,76.8333 97,75.5C 97.4998,65.172 97.6665,54.8387 97.5,44.5C 102.833,44.5 108.167,44.5 113.5,44.5C 112.526,61.0497 113.86,77.383 117.5,93.5C 117.281,104.479 111.948,111.313 101.5,114C 95.4422,114.739 89.4422,114.406 83.5,113C 80.7494,112.484 78.4161,111.317 76.5,109.5C 77.7081,105.878 78.7081,102.211 79.5,98.5C 84.5311,99.3411 89.5311,100.341 94.5,101.5C 102.338,99.4816 104.505,94.815 101,87.5C 97.2039,92.5924 92.0373,94.9258 85.5,94.5C 78.3556,94.6826 73.8556,91.3492 72,84.5C 71.5001,71.1708 71.3334,57.8375 71.5,44.5 Z"/></g>
<g><path style="opacity:0.959" fill="#fefdfd" d="M 148.5,44.5 C 154.134,44.3779 159.134,46.0446 163.5,49.5C 165.514,52.1943 167.014,55.1943 168,58.5C 169.519,67.6265 168.352,76.2932 164.5,84.5C 162.5,87.1667 160.167,89.5 157.5,91.5C 152.515,94.0696 147.182,95.0696 141.5,94.5C 141.5,100.5 141.5,106.5 141.5,112.5C 136.254,113.235 131.088,114.235 126,115.5C 125.667,97.8333 125.333,80.1667 125,62.5C 123.981,57.2822 122.481,52.2822 120.5,47.5C 124.778,46.1228 129.112,45.2894 133.5,45C 135.372,47.2932 136.872,49.7932 138,52.5C 140.242,48.0808 143.742,45.4141 148.5,44.5 Z M 141.5,72.5 C 144.064,75.2802 146.397,78.2802 148.5,81.5C 146.283,82.3686 143.95,82.702 141.5,82.5C 141.5,79.1667 141.5,75.8333 141.5,72.5 Z"/></g>
<g><path style="opacity:1" fill="#fcfefc" d="M 199.5,93.5 C 194.871,94.481 190.204,94.6477 185.5,94C 180.445,93.6011 176.111,91.7678 172.5,88.5C 174.698,85.8128 176.698,82.8128 178.5,79.5C 181.671,81.0884 185.005,82.0884 188.5,82.5C 193.75,82.3451 194.75,80.1785 191.5,76C 188.167,74.3333 184.833,72.6667 181.5,71C 171.263,60.66 172.597,51.9933 185.5,45C 193.361,44.1271 201.027,44.9604 208.5,47.5C 208.159,51.3536 206.826,54.8536 204.5,58C 201.041,57.4116 197.541,56.5783 194,55.5C 189.999,56.6738 189.499,58.8405 192.5,62C 196.993,64.079 201.326,66.4123 205.5,69C 212.011,79.2936 210.011,87.4603 199.5,93.5 Z"/></g>
<g><path style="opacity:0.987" fill="#ee2724" d="M 148.5,81.5 C 146.397,78.2802 144.064,75.2802 141.5,72.5C 141.133,68.0329 141.633,63.6996 143,59.5C 144.389,57.7727 146.056,56.4394 148,55.5C 149.261,55.7591 150.261,56.4258 151,57.5C 152.581,63.7226 152.915,70.0559 152,76.5C 151.777,78.8808 150.61,80.5475 148.5,81.5 Z"/></g>
</svg>
